<svg id="Layer_1" data-name="Layer 1" xmlns="http://www.w3.org/2000/svg" viewBox="0 0 41.52 33.12"><defs><style>.cls-1{fill:#a4d5e3;}.cls-2{fill:#183d61;}</style></defs><title>Download</title><path class="cls-1" d="M26.68379,12.12615l-.12757-.23248a3.1439,3.1439,0,0,0-1.05139-3.16779,3.65252,3.65252,0,0,0-5.14862.23951,1.85258,1.85258,0,0,0-.22272.25958,5.00525,5.00525,0,0,0-1.13568-1.3432c-1.7456-1.74567-4.36694-1.95459-5.8548-.46668a3.99152,3.99152,0,0,0-.87426,4.71106h-.225a4.95,4.95,0,0,0,0,9.9H16.8437v-5.16h5.04v5.16h4.8a4.95,4.95,0,0,0,0-9.9Z"/><polygon class="cls-2" points="16.844 22.548 14.822 22.548 17.093 24.669 19.364 26.791 21.635 24.669 23.905 22.548 21.884 22.548 21.884 22.026 16.844 22.026 16.844 22.548"/><rect class="cls-2" x="16.8437" y="16.8662" width="5.04004" height="5.15997"/></svg>