<svg id="Layer_1" data-name="Layer 1" xmlns="http://www.w3.org/2000/svg" viewBox="0 0 38.4 33.12"><defs><style>.cls-1{fill:#f6e4ad;}.cls-2{fill:none;}.cls-2,.cls-3,.cls-4{stroke:#433b39;stroke-miterlimit:10;}.cls-3{fill:#aadbcf;}.cls-3,.cls-4{stroke-width:0.5px;}.cls-4{fill:#fff;}.cls-5{fill:#433b39;}</style></defs><title>Edite</title><rect class="cls-1" x="8.67657" y="5.89984" width="21.96" height="22.68" rx="5.4"/><path class="cls-2" d="M30.63657,15.37984v7.8a5.41588,5.41588,0,0,1-5.4,5.4h-11.16a5.41588,5.41588,0,0,1-5.4-5.4v-11.88a5.41588,5.41588,0,0,1,5.4-5.4h8.805"/><path class="cls-3" d="M31.96645,5.48818l-.18538-.18106a3.34621,3.34621,0,0,0-4.73192.05581l-.94537.96795,4.89582,4.78168L26.10378,6.33088l-8.24324,8.44.129.126,2.35757,2.3026,2.35757,2.30261.129.126,9.18862-9.408A3.3462,3.3462,0,0,0,31.96645,5.48818Z"/><path class="cls-4" d="M17.98952,14.89688l-.99368,3.37567-.81342,2.763a.33844.33844,0,0,0,.42787.4179l2.74308-.87832,3.35129-1.073-2.35757-2.30261Z"/><path class="cls-5" d="M26.76669,10.62664a.3657.3657,0,0,0-.5156-.00038l-3.6997,3.788a.36924.36924,0,0,0,.52814.51583l3.6997-3.788A.3657.3657,0,0,0,26.76669,10.62664Z"/></svg>